<svg width="101" height="28" viewBox="0 0 101 28" fill="none" xmlns="http://www.w3.org/2000/svg">
<path d="M4.36 28H0.36V-1.90735e-06H2.36C4.30667 -1.90735e-06 6.41333 0.373331 8.68 1.12C10.9733 1.86666 13.2667 2.92 15.56 4.28C17.8533 5.64 20.0133 7.26666 22.04 9.16C24.0933 11.0267 25.8533 13.1067 27.32 15.4V-1.90735e-06H31.32V28H27.32C27.32 25.5467 26.8133 23.2 25.8 20.96C24.8133 18.6933 23.4933 16.6133 21.84 14.72C20.1867 12.8 18.3467 11.1067 16.32 9.64C14.32 8.14667 12.28 6.93333 10.2 6C8.12 5.04 6.17333 4.42667 4.36 4.16V28ZM62.54 28H58.54V21.96H43.14V17.88H58.54V9.96H48.14C46.8333 9.96 45.6467 10.28 44.58 10.92C43.5133 11.56 42.66 12.4133 42.02 13.48C41.38 14.52 41.06 15.6933 41.06 17V28H37.02V17C37.02 15.48 37.3 14.0533 37.86 12.72C38.4467 11.36 39.2467 10.1733 40.26 9.16C41.3 8.14667 42.4867 7.36 43.82 6.8C45.18 6.21333 46.62 5.92 48.14 5.92H62.54V28ZM93.0775 6L81.8375 28H77.2775L65.9575 6H70.5175L79.5575 23.56L88.5575 6H93.0775ZM100.442 28H96.4816V6H100.442V28Z" fill="url(#paint0_linear_813_1280)" fill-opacity="0.96"/>
<defs>
<linearGradient id="paint0_linear_813_1280" x1="107" y1="15.5" x2="-3" y2="15.5" gradientUnits="userSpaceOnUse">
<stop stop-color="#9747FF"/>
<stop offset="0.298077" stop-color="#4B9FF8"/>
<stop offset="0.941" stop-color="#FFCF24"/>
</linearGradient>
</defs>
</svg>
